<svg xmlns="http://www.w3.org/2000/svg" viewBox="0 0 594 191" width="594" height="191">
	<style>
		tspan { white-space:pre }
		.shp0 { fill: #fff } 
	</style>
	<g id="Layer">
		<g id="Layer">
			<g id="Layer">
				<path id="XMLID_239_" class="shp0" d="M130.7 116.2L130.7 163.6L111.6 163.6L111.6 115.2C111.6 103.3 106 97.5 98.1 97.5C90.9 97.5 84.8 102.2 83.8 112.6L83.8 115.3L83.8 163.5L64.7 163.5L64.7 115.1C64.7 103.2 59.1 97.4 51.2 97.4C43.6 97.4 37.2 102.9 36.7 113.5L36.7 163.5L17.7 163.5L17.7 82L30.1 82L33.3 88.6C38.9 82.7 46.6 79.8 54.4 79.8C65.2 79.8 73.4 83.3 78.2 91.2C83.8 83.5 92.5 79.8 101.3 79.8C119.9 79.7 130.7 90.7 130.7 116.2Z" />
				<path id="XMLID_236_" fill-rule="evenodd" class="shp0" d="M223.7 163.6L210.8 163.6L207.6 157.2C201.7 163.1 193.1 165.9 183.2 165.9C163.6 165.9 151.4 155.8 151.4 131.5L151.4 114.1C151.4 89.8 163.6 79.7 183.2 79.7C193.2 79.7 201.7 82.4 207.6 88.4L210.8 82L223.7 82L223.7 163.6ZM204.6 133.7L204.6 111.8C203.3 102.2 197 97.5 187.4 97.5C176.6 97.5 170.5 103 170.5 115L170.5 130.4C170.5 142.5 176.6 147.9 187.4 147.9C196.9 148 203.3 143.4 204.6 133.7Z" />
				<path id="XMLID_235_" class="shp0" d="M249.6 123.3L288.5 79.8L265 79.8L229.3 119.3L229.3 127.1L265.6 165.8L288.4 165.8L249.6 123.3Z" />
				<path id="XMLID_232_" fill-rule="evenodd" class="shp0" d="M363.5 110.6L363.5 128.6L312.1 128.6L312.1 131C312.1 144 318.2 150 329.1 150C337.3 150 344.2 145.8 344.2 138.9L344.2 137.6L363.3 137.6C363.3 155.3 349.6 165.9 329.1 165.9C305.8 165.9 292.9 151.8 292.9 130.4L292.9 114.8C292.9 93.4 305.8 79.8 328.6 79.8C349.5 79.7 363.5 92.8 363.5 110.6ZM344.1 114L344.1 110.8C344.1 100.7 339.1 95.7 329 95.7C317.6 95.7 312.3 102.1 312.1 114L344.1 114Z" />
				<path id="XMLID_230_" class="shp0" d="M430.4 80.7L430.4 97.6C428 97 425.4 96.5 422.8 96.5C413 96.5 404.3 102.1 404.3 114.5L404.3 163.7L385.3 163.7L385.3 82L398.2 82L401.9 89.4C408.3 83.5 417.3 80.4 426.3 80.4C427.8 80.4 429.1 80.5 430.4 80.7Z" />
				<path id="XMLID_228_" class="shp0" d="M444.1 138.4L444.1 136.6L463.1 136.6L463.1 138.4C463.1 145.1 469.4 149.2 478.5 149.2C486.2 149.2 491.8 146.1 491.8 140.8C491.8 125.9 445.5 135.8 445.5 106.1C445.5 90.2 458.4 79.8 477.3 79.8C497.1 79.8 509.4 90.9 509.4 106.5L509.4 108.1L490.4 108.1L490.4 106.5C490.4 100.4 485.3 96.5 477.2 96.5C469 96.5 464.2 100.2 464.2 104.9C464.2 118.4 510.6 109.2 510.6 139.6C510.6 157.3 495 166 477.3 166C456.9 165.9 444.1 154.6 444.1 138.4Z" />
				<path id="XMLID_225_" fill-rule="evenodd" class="shp0" d="M576.2 117.7L576.2 125.6L540.5 165.1L517 165.1L555.9 121.5L517 79L539.9 79L576.2 117.7ZM571.9 123.9L571.9 119.4L538 83.4L526.9 83.4L559.2 118.7C560.7 120.4 560.7 122.8 559.2 124.5L526.7 160.8L538.6 160.8L571.9 123.9Z" />
				<g id="XMLID_211_">
					<path id="XMLID_224_" class="shp0" d="M305.7 37.9C305.7 34.6 308.5 32.4 313.5 32.4C318.8 32.4 321.8 34.9 321.8 38.4L321.8 40.2L326.3 40.2L326.3 38.6C326.3 32.5 322.1 28.1 313.5 28.1C304.9 28.1 301.1 32.5 301.1 38C301.1 50.8 322.5 45.7 322.5 55.2C322.5 59.1 319.1 61.5 313.9 61.5C308.3 61.5 304.8 58.9 304.8 55L304.8 53.4L300.3 53.4L300.3 54.8C300.3 61.2 305.1 65.8 313.8 65.8C322.6 65.8 327.1 61.1 327 55C327 41.7 305.7 46.2 305.7 37.9Z" />
					<path id="XMLID_221_" fill-rule="evenodd" class="shp0" d="M352.6 49.2L352.6 55C352.6 61.7 348.8 65.8 341.5 65.8C334.2 65.8 330.4 61.7 330.4 55L330.4 49.2C330.4 42.5 334.2 38.4 341.5 38.4C348.8 38.4 352.6 42.5 352.6 49.2ZM348.2 49.4C348.2 44.8 346.2 42.5 341.5 42.5C336.9 42.5 334.8 44.8 334.8 49.4L334.8 54.7C334.8 59.3 336.8 61.6 341.5 61.6C346.1 61.6 348.2 59.3 348.2 54.7L348.2 49.4Z" />
					<path id="Layer" class="shp0" d="M386.2 60.9C382.6 60.9 380.9 59.3 380.9 55.1L380.9 43.2L388 43.2L388 39.1L380.9 39.1L380.9 31.5L376.5 31.5L376.5 39.1L364.4 39.1L364.4 35.7C364.4 31.4 366.1 29.6 369.8 29.6L372.1 29.6L372.1 25.4L369.3 25.4C363.4 25.4 360 29.1 360 35.3L360 39.1L357 39.1L357 43.2L360 43.2L360 65.1L364.4 65.1L364.4 43.2L376.5 43.2L376.5 56.1C376.5 62.3 379.4 65.1 385.3 65.1L388.5 65.1L388.5 60.9L386.2 60.9Z" />
					<path id="XMLID_219_" class="shp0" d="M422.3 60.1L414.4 28.7L410.4 28.7L402.7 60L395.3 28.7L390.6 28.7L399.6 65.1L405.4 65.1L412.5 37.6L419.5 65.1L425.3 65.1L434.3 28.7L429.6 28.7L422.3 60.1Z" />
					<path id="XMLID_216_" fill-rule="evenodd" class="shp0" d="M454.6 39.1L457.6 39.1L457.6 65.1L454.6 65.1L453.8 62.5C452 64.7 449.1 65.8 445.7 65.8C439.4 65.8 435.6 62.5 435.6 54.8L435.6 49.4C435.6 41.6 439.3 38.4 445.7 38.4C449.1 38.4 451.9 39.5 453.8 41.7L454.6 39.1ZM453.3 48.8C453 44.6 450.5 42.6 446.5 42.6C442.2 42.6 440 44.8 440 49.7L440 54.5C440 59.4 442.1 61.6 446.5 61.6C450.4 61.6 452.9 59.6 453.3 55.3L453.3 48.8Z" />
					<path id="XMLID_215_" class="shp0" d="M469.1 41.7L468.2 39L465.2 39L465.2 65L469.6 65L469.6 48.6C469.6 44.3 472.7 42.3 476.5 42.3C477.2 42.3 478 42.4 478.7 42.6L478.7 38.6C478.2 38.5 477.7 38.5 477.2 38.5C474.1 38.6 471 39.7 469.1 41.7Z" />
					<path id="XMLID_212_" fill-rule="evenodd" class="shp0" d="M503.8 53.3L486.5 53.3L486.5 54.5C486.5 59.4 488.6 61.9 493.2 61.9C497 61.9 499.4 60.2 499.4 57L499.4 56.7L503.8 56.7C503.8 62.5 499.6 65.7 493.3 65.7C485.8 65.7 482.1 61.2 482.1 54.5L482.1 49.5C482.1 42.8 485.9 38.4 493 38.4C499.6 38.4 503.8 42.3 503.8 48.1L503.8 53.3ZM486.3 49.5L486.3 49.7L499.3 49.7L499.3 48.2C499.3 44.2 497.2 42.2 493.1 42.2C488.5 42.2 486.4 44.8 486.4 49.5L486.3 49.5Z" />
				</g>
			</g>
		</g>
	</g>
</svg>